<?xml version="1.0" encoding="UTF-8" standalone="no"?>
<!DOCTYPE svg PUBLIC "-//W3C//DTD SVG 1.1//EN" "http://www.w3.org/Graphics/SVG/1.1/DTD/svg11.dtd">
<svg width="100%" height="100%" viewBox="0 0 512 512" version="1.1" xmlns="http://www.w3.org/2000/svg" xmlns:xlink="http://www.w3.org/1999/xlink" xml:space="preserve" xmlns:serif="http://www.serif.com/" style="fill-rule:evenodd;clip-rule:evenodd;stroke-linejoin:round;stroke-miterlimit:2;">
    <g id="Vrstva-1" serif:id="Vrstva 1">
        <path id="rect1" d="M306.055,54.771C327.105,54.338 347.458,63.664 360.852,80.32L387.395,113.328L408.402,95.518L440.736,133.656L418.738,152.307L450.088,191.295C465.395,210.331 469.4,236.191 460.568,258.965L409.08,391.734C400.248,414.508 379.856,430.906 355.717,434.645L214.992,456.439C190.853,460.178 166.455,450.715 151.148,431.68L126.045,400.461L105.586,417.807L73.25,379.668L94.701,361.48L61.912,320.705C46.605,301.669 42.6,275.809 51.432,253.035L102.92,120.268C111.752,97.493 132.144,81.096 156.283,77.357L297.008,55.562C300.025,55.095 303.048,54.833 306.055,54.771ZM307.049,101.643C306.098,101.664 305.141,101.748 304.184,101.896L163.459,123.691C155.799,124.878 149.435,129.994 146.633,137.221L95.145,269.988C92.342,277.215 93.594,285.284 98.451,291.324L130.475,331.15L351.619,143.66L324.312,109.703C320.67,105.173 315.477,102.379 309.877,101.766C308.944,101.663 308,101.621 307.049,101.643ZM382.963,182.639L161.818,370.131L187.686,402.299C192.543,408.339 200.157,411.292 207.816,410.105L348.541,388.311C356.201,387.124 362.565,382.008 365.367,374.781L416.854,242.012C419.656,234.785 418.408,226.716 413.551,220.676L382.963,182.639Z" style="fill:url(#_Linear1);"/>
    </g>
    <defs>
        <linearGradient id="_Linear1" x1="0" y1="0" x2="1" y2="0" gradientUnits="userSpaceOnUse" gradientTransform="matrix(507.212202,-506.064451,506.064451,507.212202,1.377812,509.037353)"><stop offset="0" style="stop-color:rgb(54,209,220);stop-opacity:1"/><stop offset="1" style="stop-color:rgb(107,134,229);stop-opacity:1"/></linearGradient>
    </defs>
</svg>
