<?xml version="1.0" encoding="UTF-8" standalone="no"?>
<!-- Created with Inkscape (http://www.inkscape.org/) -->

<svg
   width="512"
   height="512"
   viewBox="0 0 512 512"
   version="1.1"
   id="svg1"
   inkscape:version="1.4.2 (f4327f4, 2025-05-13)"
   sodipodi:docname="appicon.svg"
   xmlns:inkscape="http://www.inkscape.org/namespaces/inkscape"
   xmlns:sodipodi="http://sodipodi.sourceforge.net/DTD/sodipodi-0.dtd"
   xmlns:xlink="http://www.w3.org/1999/xlink"
   xmlns="http://www.w3.org/2000/svg"
   xmlns:svg="http://www.w3.org/2000/svg">
  <sodipodi:namedview
     id="namedview1"
     pagecolor="#ffffff"
     bordercolor="#666666"
     borderopacity="1.0"
     inkscape:showpageshadow="2"
     inkscape:pageopacity="0.0"
     inkscape:pagecheckerboard="0"
     inkscape:deskcolor="#d1d1d1"
     inkscape:document-units="px"
     inkscape:zoom="1.5097656"
     inkscape:cx="255.33765"
     inkscape:cy="255.33765"
     inkscape:window-width="1920"
     inkscape:window-height="991"
     inkscape:window-x="-9"
     inkscape:window-y="-9"
     inkscape:window-maximized="1"
     inkscape:current-layer="layer1" />
  <defs
     id="defs1">
    <inkscape:path-effect
       effect="fillet_chamfer"
       id="path-effect2"
       is_visible="true"
       lpeversion="1"
       nodesatellites_param="F,0,0,1,0,33.07888,0,1 @ F,0,0,1,0,33.07888,0,1 @ F,0,0,1,0,33.07888,0,1 @ F,0,0,1,0,33.07888,0,1 @ F,0,0,1,0,33.07888,0,1 @ F,0,0,1,0,33.07888,0,1"
       radius="25"
       unit="px"
       method="auto"
       mode="F"
       chamfer_steps="1"
       flexible="false"
       use_knot_distance="true"
       apply_no_radius="true"
       apply_with_radius="true"
       only_selected="false"
       hide_knots="false" />
    <linearGradient
       id="linearGradient1"
       inkscape:collect="always">
      <stop
         style="stop-color:#36d1dc;stop-opacity:1;"
         offset="0"
         id="stop1" />
      <stop
         style="stop-color:#6b86e5;stop-opacity:1;"
         offset="1"
         id="stop2" />
    </linearGradient>
    <inkscape:path-effect
       effect="fillet_chamfer"
       id="path-effect1"
       is_visible="true"
       lpeversion="1"
       nodesatellites_param="F,0,0,1,0,0,0,1 @ F,0,0,1,0,0,0,1 @ F,0,0,1,0,0,0,1 @ F,0,0,1,0,0,0,1"
       radius="0"
       unit="px"
       method="auto"
       mode="F"
       chamfer_steps="1"
       flexible="false"
       use_knot_distance="true"
       apply_no_radius="true"
       apply_with_radius="true"
       only_selected="false"
       hide_knots="false" />
    <linearGradient
       inkscape:collect="always"
       xlink:href="#linearGradient1"
       id="linearGradient2"
       x1="-7.2858992"
       y1="511.66882"
       x2="513.85345"
       y2="1.6558843"
       gradientUnits="userSpaceOnUse"
       gradientTransform="matrix(0.97327558,0,0,0.99225807,8.4689997,1.3298368)" />
  </defs>
  <g
     inkscape:label="Vrstva 1"
     inkscape:groupmode="layer"
     id="layer1">
    <rect
       style="fill:url(#linearGradient2);stroke-width:0.982721"
       id="rect1"
       width="506.56757"
       height="509.35059"
       x="3.3117723"
       y="1.9870634"
       sodipodi:type="rect" />
    <path
       id="rect2"
       style="fill:#ffffff;fill-opacity:1"
       d="M -8.6113281 -3.3125 L -8.6113281 519.28516 L 512.66211 519.28516 L 512.66211 -3.3125 L -8.6113281 -3.3125 z M 306.05469 54.771484 C 327.10501 54.338264 347.45791 63.664113 360.85156 80.320312 L 387.39453 113.32812 L 408.40234 95.517578 L 440.73633 133.65625 L 418.73828 152.30664 L 450.08789 191.29492 C 465.39492 210.33058 469.40022 236.19075 460.56836 258.96484 L 409.08008 391.73438 C 400.24823 414.50847 379.85567 430.9061 355.7168 434.64453 L 214.99219 456.43945 C 190.85331 460.17789 166.45546 450.71535 151.14844 431.67969 L 126.04492 400.46094 L 105.58594 417.80664 L 73.25 379.66797 L 94.701172 361.48047 L 61.912109 320.70508 C 46.605088 301.66942 42.599792 275.80925 51.431641 253.03516 L 102.91992 120.26758 C 111.75177 97.493475 132.14433 81.095863 156.2832 77.357422 L 297.00781 55.5625 C 300.02517 55.095195 303.0475 54.833374 306.05469 54.771484 z M 307.04883 101.64258 C 306.09806 101.66367 305.14106 101.7482 304.18359 101.89648 L 163.45898 123.69141 C 155.79923 124.87769 149.43533 129.99403 146.63281 137.2207 L 95.144531 269.98828 C 92.342011 277.21496 93.59395 285.28383 98.451172 291.32422 L 130.47461 331.15039 L 351.61914 143.66016 L 324.3125 109.70312 C 320.66958 105.17284 315.47716 102.37862 309.87695 101.76562 C 308.94359 101.66347 307.99959 101.62149 307.04883 101.64258 z M 382.96289 182.63867 L 161.81836 370.13086 L 187.68555 402.29883 C 192.54277 408.33922 200.15666 411.29175 207.81641 410.10547 L 348.54102 388.31055 C 356.20076 387.12427 362.56467 382.00793 365.36719 374.78125 L 416.85352 242.01172 C 419.65604 234.78505 418.408 226.71618 413.55078 220.67578 L 382.96289 182.63867 z " />
  </g>
</svg>
